# xmcd
#
# Track frame offsets: 
#        150
#        7947
#        18879
#        28858
#        39092
#        48246
#        58144
#        69175
#        80509
#        91559
#        100823
#        111088
#        121696
#        132112
#        147215
#        155586
#        166244
#        177228
#        189658
#        202399
#        211332
#        221460
#        231977
#        241927
#        252875
#        262129
#
# Disc length: 3641 seconds
#
# Revision: 0
# Processed by: cddbd v1.5.2PL0 Copyright (c) Steve Scherf et al.
# Submitted via: ExactAudioCopy v1.0b1
#
DISCID=5d0e371a
DTITLE=Va  - Birth Of Surf - Vol. 1 (2007)  FLAC
DYEAR=1900
DGENRE=
TTITLE0=Duane Eddy And The Rebels - Ramrod
TTITLE1=Johnny And The Hurricanes - Crossfire
TTITLE2=The Fireballs - Bulldog
TTITLE3=The Gamblers - Moon Dawg
TTITLE4=The Ventures - Lullaby Of The Leaves
TTITLE5=The Belairs - Mr. Moto
TTITLE6=Link Wray And His Ray Men - Jack The Ripper
TTITLE7=The Sentinals - Latin'ia
TTITLE8=The Tornadoes - Bustin' Surfboards
TTITLE9=The Surfmen - El Toro
TTITLE10=Dick Dale And The Del-Tones - Misirlou
TTITLE11=The Chantays - Pipeline
TTITLE12=The Surfaris - Wipe Out
TTITLE13=The Lively Ones - Surf Rider
TTITLE14=The Original Surfaris - Latin Soul
TTITLE15=The Illusions - Jezebel
TTITLE16=The Astronauts - Baja
TTITLE17=Aki Aleong And The Nobles - Earthquake
TTITLE18=The Blazers - Beaver Patrol
TTITLE19=Eddie And The Showmen - Squad Car
TTITLE20=The Crossfires - Fiberglass Jungle
TTITLE21=The Avantis - Gypsy Surfer
TTITLE22=The Chevells - Let There Be Surf
TTITLE23=The Chandelles - El Gato
TTITLE24=The Pyramids - Penetration
TTITLE25=Bob Hafner - Surf Creature
EXTD=
EXTT0=
EXTT1=
EXTT2=
EXTT3=
EXTT4=
EXTT5=
EXTT6=
EXTT7=
EXTT8=
EXTT9=
EXTT10=
EXTT11=
EXTT12=
EXTT13=
EXTT14=
EXTT15=
EXTT16=
EXTT17=
EXTT18=
EXTT19=
EXTT20=
EXTT21=
EXTT22=
EXTT23=
EXTT24=
EXTT25=
PLAYORDER=
